# xmcd
#
# Track frame offsets:
#	150
#	3118
#	23075
#	39000
#	58100
#	73225
#	88975
#	108475
#	124350
#	141600
#	156175
#	172938
#
# Disc length: 2535 seconds
#
# Revision: 1
# Processed by: cddbd v1.5.2PL0 Copyright (c) Steve Scherf et al.
# Submitted via: EasyCDDAExtractor 12.0.1.1
#
DISCID=a209e50c
DTITLE=WAX - Always you
DYEAR=2009
DGENRE=Dance
TTITLE0=Intro
TTITLE1=몽당연필
TTITLE2=결국 너야
TTITLE3=그 사랑이 뭔데
TTITLE4=골드미스 다이어리
TTITLE5=비가 그쳐도(feat. AMEN)
TTITLE6=내 남자 자랑
TTITLE7=Missing You
TTITLE8=Chiki Chiki
TTITLE9=유통기한
TTITLE10=우리 않을께
TTITLE11=전화 한번 못하니 (Bonus Track)
EXTD=
EXTT0=
EXTT1=
EXTT2=
EXTT3=
EXTT4=
EXTT5=
EXTT6=
EXTT7=
EXTT8=
EXTT9=
EXTT10=
EXTT11=
PLAYORDER=
